ffmpeg version 5.1.6-0+deb12u1 Copyright (c) 2000-2024 the FFmpeg developers
  built with gcc 12 (Debian 12.2.0-14)
  configuration: --prefix=/usr --extra-version=0+deb12u1 --toolchain=hardened --libdir=/usr/lib/x86_64-linux-gnu --incdir=/usr/include/x86_64-linux-gnu --arch=amd64 --enable-gpl --disable-stripping --enable-gnutls --enable-ladspa --enable-libaom --enable-libass --enable-libbluray --enable-libbs2b --enable-libcaca --enable-libcdio --enable-libcodec2 --enable-libdav1d --enable-libflite --enable-libfontconfig --enable-libfreetype --enable-libfribidi --enable-libglslang --enable-libgme --enable-libgsm --enable-libjack --enable-libmp3lame --enable-libmysofa --enable-libopenjpeg --enable-libopenmpt --enable-libopus --enable-libpulse --enable-librabbitmq --enable-librist --enable-librubberband --enable-libshine --enable-libsnappy --enable-libsoxr --enable-libspeex --enable-libsrt --enable-libssh --enable-libsvtav1 --enable-libtheora --enable-libtwolame --enable-libvidstab --enable-libvorbis --enable-libvpx --enable-libwebp --enable-libx265 --enable-libxml2 --enable-libxvid --enable-libzimg --enable-libzmq --enable-libzvbi --enable-lv2 --enable-omx --enable-openal --enable-opencl --enable-opengl --enable-sdl2 --disable-sndio --enable-libjxl --enable-pocketsphinx --enable-librsvg --enable-libmfx --enable-libdc1394 --enable-libdrm --enable-libiec61883 --enable-chromaprint --enable-frei0r --enable-libx264 --enable-libplacebo --enable-librav1e --enable-shared
  libavutil      57. 28.100 / 57. 28.100
  libavcodec     59. 37.100 / 59. 37.100
  libavformat    59. 27.100 / 59. 27.100
  libavdevice    59.  7.100 / 59.  7.100
  libavfilter     8. 44.100 /  8. 44.100
  libswscale      6.  7.100 /  6.  7.100
  libswresample   4.  7.100 /  4.  7.100
  libpostproc    56.  6.100 / 56.  6.100
Input #0, rawvideo, from 'pipe:':
  Duration: N/A, start: 0.000000, bitrate: 1382400 kb/s
  Stream #0:0: Video: rawvideo (RGB[24] / 0x18424752), rgb24, 800x600, 1382400 kb/s, 120 fps, 120 tbr, 120 tbn
Stream mapping:
  Stream #0:0 -> #0:0 (rawvideo (native) -> h264 (libx264))
[libx264 @ 0x55b23631c580] using cpu capabilities: MMX2 SSE2Fast SSSE3 SSE4.2 AVX FMA3 BMI2 AVX2
[libx264 @ 0x55b23631c580] profile High, level 4.0, 4:2:0, 8-bit
[libx264 @ 0x55b23631c580] 264 - core 164 r3095 baee400 - H.264/MPEG-4 AVC codec - Copyleft 2003-2022 - http://www.videolan.org/x264.html - options: cabac=1 ref=3 deblock=1:0:0 analyse=0x3:0x113 me=hex subme=7 psy=1 psy_rd=1.00:0.00 mixed_ref=1 me_range=16 chroma_me=1 trellis=1 8x8dct=1 cqm=0 deadzone=21,11 fast_pskip=1 chroma_qp_offset=-2 threads=19 lookahead_threads=3 sliced_threads=0 nr=0 decimate=1 interlaced=0 bluray_compat=0 constrained_intra=0 bframes=3 b_pyramid=2 b_adapt=1 b_bias=0 direct=1 weightb=1 open_gop=0 weightp=2 keyint=250 keyint_min=25 scenecut=40 intra_refresh=0 rc_lookahead=40 rc=crf mbtree=1 crf=15.0 qcomp=0.60 qpmin=0 qpmax=69 qpstep=4 ip_ratio=1.40 aq=1:1.00
Output #0, mp4, to '/home/kaiser/sketchbook/sketch_241216a/output.mp4':
  Metadata:
    comment         : Made with Video Export for Processing - https://git.io/vAXLk
    encoder         : Lavf59.27.100
  Stream #0:0: Video: h264 (avc1 / 0x31637661), yuv420p(tv, progressive), 800x600, q=2-31, 120 fps, 15360 tbn
    Metadata:
      encoder         : Lavc59.37.100 libx264
    Side data:
      cpb: bitrate max/min/avg: 0/0/0 buffer size: 0 vbv_delay: N/A
frame=    1 fps=0.0 q=0.0 size=       0kB time=00:00:00.00 bitrate=N/A speed=   0x    frame=   15 fps=0.0 q=0.0 size=       0kB time=00:00:00.00 bitrate=N/A speed=   0x    frame=   25 fps= 23 q=0.0 size=       0kB time=00:00:00.00 bitrate=N/A speed=   0x    frame=   35 fps= 21 q=0.0 size=       0kB time=00:00:00.00 bitrate=N/A speed=   0x    frame=   45 fps= 21 q=0.0 size=       0kB time=00:00:00.00 bitrate=N/A speed=   0x    frame=   54 fps= 20 q=0.0 size=       0kB time=00:00:00.00 bitrate=N/A speed=   0x    frame=   63 fps= 20 q=0.0 size=       0kB time=00:00:00.00 bitrate=N/A speed=   0x    frame=   72 fps= 19 q=25.0 size=     256kB time=00:00:00.05 bitrate=41896.3kbits/s speed=0.0135x    frame=   81 fps= 19 q=25.0 size=     768kB time=00:00:00.12 bitrate=50308.6kbits/s speed=0.0296x    frame=   91 fps= 19 q=25.0 size=    1024kB time=00:00:00.20 bitrate=40254.7kbits/s speed=0.0437x    frame=  100 fps= 19 q=25.0 size=    1536kB time=00:00:00.28 bitrate=44401.5kbits/s speed=0.0537x    frame=  110 fps= 19 q=25.0 size=    2304kB time=00:00:00.36 bitrate=51467.4kbits/s speed=0.063x    frame=  119 fps= 19 q=25.0 size=    2816kB time=00:00:00.44 bitrate=52224.1kbits/s speed=0.0696x    frame=  129 fps= 19 q=25.0 size=    3328kB time=00:00:00.52 bitrate=51923.8kbits/s speed=0.0761x    frame=  138 fps= 19 q=25.0 size=    4096kB time=00:00:00.60 bitrate=55918.6kbits/s speed=0.0807x    frame=  148 fps= 19 q=25.0 size=    4864kB time=00:00:00.68 bitrate=58306.1kbits/s speed=0.0857x    frame=  158 fps= 19 q=25.0 size=    5632kB time=00:00:00.76 bitrate=60174.5kbits/s speed=0.0899x    frame=  168 fps= 19 q=25.0 size=    6144kB time=00:00:00.85 bitrate=59209.6kbits/s speed=0.0936x    frame=  177 fps= 18 q=25.0 size=    6912kB time=00:00:00.92 bitrate=61210.3kbits/s speed=0.0964x    frame=  186 fps= 18 q=25.0 size=    7424kB time=00:00:01.00 bitrate=60813.8kbits/s speed=0.0989x    frame=  195 fps= 18 q=25.0 size=    7936kB time=00:00:01.07 bitrate=60472.7kbits/s speed=0.101x    frame=  204 fps= 18 q=25.0 size=    8448kB time=00:00:01.15 bitrate=60176.1kbits/s speed=0.103x    frame=  213 fps= 18 q=25.0 size=    8960kB time=00:00:01.22 bitrate=59915.8kbits/s speed=0.105x    frame=  222 fps= 18 q=25.0 size=    9472kB time=00:00:01.30 bitrate=59685.5kbits/s speed=0.107x    frame=  231 fps= 18 q=25.0 size=    9728kB time=00:00:01.37 bitrate=57955.2kbits/s speed=0.109x    frame=  240 fps= 18 q=25.0 size=   10240kB time=00:00:01.45 bitrate=57850.1kbits/s speed=0.11x    frame=  250 fps= 18 q=25.0 size=   10752kB time=00:00:01.53 bitrate=57441.6kbits/s speed=0.111x    frame=  259 fps= 18 q=25.0 size=   11520kB time=00:00:01.60 bitrate=58674.7kbits/s speed=0.113x    frame=  269 fps= 18 q=25.0 size=   12288kB time=00:00:01.69 bitrate=59503.3kbits/s speed=0.114x    frame=  278 fps= 18 q=25.0 size=   13056kB time=00:00:01.76 bitrate=60538.4kbits/s speed=0.115x    frame=  288 fps= 18 q=25.0 size=   13824kB time=00:00:01.85 bitrate=61212.2kbits/s speed=0.116x    frame=  297 fps= 18 q=25.0 size=   14848kB time=00:00:01.92 bitrate=63185.0kbits/s speed=0.117x    frame=  306 fps= 18 q=25.0 size=   15872kB time=00:00:02.00 bitrate=65009.8kbits/s speed=0.118x    frame=  315 fps= 18 q=25.0 size=   16896kB time=00:00:02.07 bitrate=66702.7kbits/s speed=0.118x    frame=  324 fps= 18 q=25.0 size=   18176kB time=00:00:02.15 bitrate=69252.9kbits/s speed=0.119x    frame=  333 fps= 18 q=25.0 size=   19456kB time=00:00:02.22 bitrate=71631.1kbits/s speed=0.12x    frame=  343 fps= 18 q=25.0 size=   20992kB time=00:00:02.30 bitrate=74496.2kbits/s speed=0.121x    frame=  352 fps= 18 q=25.0 size=   22272kB time=00:00:02.38 bitrate=76551.5kbits/s speed=0.121x    frame=  361 fps= 18 q=25.0 size=   23552kB time=00:00:02.45 bitrate=78481.3kbits/s speed=0.122x    frame=  370 fps= 18 q=25.0 size=   25088kB time=00:00:02.53 bitrate=81124.8kbits/s speed=0.122x    frame=  380 fps= 18 q=25.0 size=   26624kB time=00:00:02.61 bitrate=83349.8kbits/s speed=0.123x    frame=  389 fps= 18 q=25.0 size=   27904kB time=00:00:02.69 bitrate=84923.0kbits/s speed=0.123x    frame=  398 fps= 18 q=25.0 size=   29184kB time=00:00:02.76 bitrate=86410.9kbits/s speed=0.124x    frame=  407 fps= 18 q=25.0 size=   30464kB time=00:00:02.84 bitrate=87820.2kbits/s speed=0.124x    frame=  416 fps= 18 q=25.0 size=   31488kB time=00:00:02.91 bitrate=88438.0kbits/s speed=0.125x    frame=  426 fps= 18 q=25.0 size=   32768kB time=00:00:03.00 bitrate=89476.7kbits/s speed=0.125x    frame=  435 fps= 18 q=25.0 size=   33792kB time=00:00:03.07 bitrate=90022.3kbits/s speed=0.125x    frame=  444 fps= 18 q=25.0 size=   34560kB time=00:00:03.15 bitrate=89876.2kbits/s speed=0.126x    frame=  454 fps= 18 q=25.0 size=   35328kB time=00:00:03.23 bitrate=89505.6kbits/s speed=0.126x    frame=  463 fps= 18 q=25.0 size=   36096kB time=00:00:03.30 bitrate=89378.2kbits/s speed=0.127x    frame=  473 fps= 18 q=25.0 size=   36864kB time=00:00:03.39 bitrate=89037.2kbits/s speed=0.127x    frame=  482 fps= 18 q=25.0 size=   37376kB time=00:00:03.46 bitrate=88320.8kbits/s speed=0.127x    frame=  491 fps= 18 q=25.0 size=   37632kB time=00:00:03.54 bitrate=87042.6kbits/s speed=0.128x    frame=  500 fps= 18 q=25.0 size=   38144kB time=00:00:03.61 bitrate=86397.3kbits/s speed=0.128x    frame=  509 fps= 18 q=25.0 size=   38400kB time=00:00:03.69 bitrate=85210.2kbits/s speed=0.128x    frame=  518 fps= 18 q=25.0 size=   38912kB time=00:00:03.76 bitrate=84627.1kbits/s speed=0.129x    frame=  528 fps= 18 q=25.0 size=   39424kB time=00:00:03.85 bitrate=83884.8kbits/s speed=0.129x    frame=  537 fps= 18 q=25.0 size=   39936kB time=00:00:03.92 bitrate=83350.5kbits/s speed=0.129x    frame=  546 fps= 18 q=25.0 size=   40448kB time=00:00:04.00 bitrate=82836.3kbits/s speed=0.13x    frame=  555 fps= 18 q=25.0 size=   40960kB time=00:00:04.07 bitrate=82340.9kbits/s speed=0.13x    frame=  564 fps= 18 q=25.0 size=   41728kB time=00:00:04.15 bitrate=82368.9kbits/s speed=0.13x    frame=  574 fps= 18 q=25.0 size=   42496kB time=00:00:04.23 bitrate=82233.6kbits/s speed=0.13x    frame=  583 fps= 18 q=25.0 size=   43008kB time=00:00:04.30 bitrate=81775.6kbits/s speed=0.131x    frame=  592 fps= 18 q=25.0 size=   43776kB time=00:00:04.38 bitrate=81811.7kbits/s speed=0.131x    frame=  600 fps= 18 q=-1.0 Lsize=   47578kB time=00:00:04.97 bitrate=78342.1kbits/s speed=0.146x    
video:47570kB audio:0kB subtitle:0kB other streams:0kB global headers:0kB muxing overhead: 0.017359%
[libx264 @ 0x55b23631c580] frame I:3     Avg QP:14.96  size: 78815
[libx264 @ 0x55b23631c580] frame P:180   Avg QP:25.20  size: 98502
[libx264 @ 0x55b23631c580] frame B:417   Avg QP:28.90  size: 73726
[libx264 @ 0x55b23631c580] consecutive B-frames:  6.7%  2.0%  0.0% 91.3%
[libx264 @ 0x55b23631c580] mb I  I16..4: 44.3% 30.4% 25.3%
[libx264 @ 0x55b23631c580] mb P  I16..4:  0.7%  5.4%  9.4%  P16..4:  7.5% 15.5% 16.7%  0.0%  0.0%    skip:44.8%
[libx264 @ 0x55b23631c580] mb B  I16..4:  0.2%  0.3%  1.0%  B16..8: 17.2% 13.4% 13.3%  direct:15.1%  skip:39.7%  L0:23.0% L1:19.9% BI:57.0%
[libx264 @ 0x55b23631c580] 8x8 transform intra:31.9% inter:15.4%
[libx264 @ 0x55b23631c580] coded y,uvDC,uvAC intra: 82.4% 70.6% 63.0% inter: 50.6% 16.4% 8.3%
[libx264 @ 0x55b23631c580] i16 v,h,dc,p: 77%  8% 11%  5%
[libx264 @ 0x55b23631c580] i8 v,h,dc,ddl,ddr,vr,hd,vl,hu: 13%  5% 45%  6%  7%  7%  5%  7%  6%
[libx264 @ 0x55b23631c580] i4 v,h,dc,ddl,ddr,vr,hd,vl,hu: 18%  7% 22%  9%  9% 10%  8%  8%  8%
[libx264 @ 0x55b23631c580] i8c dc,h,v,p: 66%  8% 15% 12%
[libx264 @ 0x55b23631c580] Weighted P-Frames: Y:13.3% UV:0.0%
[libx264 @ 0x55b23631c580] ref P L0: 56.6% 22.4% 14.0%  6.4%  0.7%
[libx264 @ 0x55b23631c580] ref B L0: 86.1% 12.1%  1.8%
[libx264 @ 0x55b23631c580] ref B L1: 93.5%  6.5%
[libx264 @ 0x55b23631c580] kb/s:77936.80
Exiting normally, received signal 15.
